<?xml version="1.0" encoding="utf-8"?>
<svg xmlns="http://www.w3.org/2000/svg" viewBox="0 0 48 48" width="144" height="144">
  <path d="M24.015625 4C15.746684 4 8.6222817 9.0339844 5.5859375 16.220703 A 2.0002 2.0002 0 1 0 9.2695312 17.779297C11.695187 12.038016 17.368566 8 24.015625 8C32.875714 8 40.015625 15.139911 40.015625 24C40.015625 32.860089 32.875714 40 24.015625 40C17.368566 40 11.695187 35.961984 9.2695312 30.220703 A 2.0002 2.0002 0 1 0 5.5859375 31.779297C8.6222817 38.966016 15.746684 44 24.015625 44C35.037536 44 44.015625 35.021911 44.015625 24C44.015625 12.978089 35.037536 4 24.015625 4 z M 22.978516 15.980469 A 2.0002 2.0002 0 0 0 21.585938 19.414062L24.171875 22L6 22 A 2.0002 2.0002 0 1 0 6 26L24.171875 26L21.585938 28.585938 A 2.0002 2.0002 0 1 0 24.414062 31.414062L30.414062 25.414062 A 2.0002 2.0002 0 0 0 30.414062 22.585938L24.414062 16.585938 A 2.0002 2.0002 0 0 0 22.978516 15.980469 z" />
</svg>