<?xml version="1.0" encoding="utf-8"?>
<svg xmlns="http://www.w3.org/2000/svg" viewBox="0 0 48 48" width="50" height="50">
  <path d="M24 4C12.972066 4 4 12.972074 4 24C4 35.027926 12.972066 44 24 44C35.027934 44 44 35.027926 44 24C44 12.972074 35.027934 4 24 4 z M 24 7C33.406615 7 41 14.593391 41 24C41 33.406609 33.406615 41 24 41C14.593385 41 7 33.406609 7 24C7 14.593391 14.593385 7 24 7 z M 22.568359 11.980469 A 1.50015 1.50015 0 0 0 21.048828 13.119141L18.833984 21.535156L15.105469 22.552734 A 1.50015 1.50015 0 1 0 15.894531 25.447266L17.953125 24.886719L16.048828 32.119141 A 1.50015 1.50015 0 0 0 17.5 34L30.5 34 A 1.50015 1.50015 0 1 0 30.5 31L19.445312 31L21.294922 23.974609L26.894531 22.447266 A 1.50015 1.50015 0 1 0 26.105469 19.552734L22.175781 20.625L23.951172 13.880859 A 1.50015 1.50015 0 0 0 22.568359 11.980469 z" fill="#FFFFFF" />
</svg>