<?xml version="1.0" encoding="utf-8"?>
<svg xmlns="http://www.w3.org/2000/svg" viewBox="0 0 48 48" width="50" height="50">
  <path d="M43.6,18.53c0.79-0.05,1.4-0.71,1.4-1.5V13.5c0-1.93-1.57-3.5-3.5-3.5H33v2c0,0.83-0.67,1.5-1.5,1.5S30,12.83,30,12v-2H6.5 C4.57,10,3,11.57,3,13.5v3.53c0,0.79,0.61,1.45,1.4,1.5c2.86,0.18,5.1,2.59,5.1,5.47s-2.24,5.29-5.1,5.47 C3.61,29.52,3,30.18,3,30.97v3.53C3,36.43,4.57,38,6.5,38H30v-2c0-0.83,0.67-1.5,1.5-1.5S33,35.17,33,36v2h8.5 c1.93,0,3.5-1.57,3.5-3.5v-3.53c0-0.79-0.61-1.45-1.4-1.5c-2.86-0.18-5.1-2.59-5.1-5.47S40.74,18.71,43.6,18.53z M33,30 c0,0.83-0.67,1.5-1.5,1.5S30,30.83,30,30v-3c0-0.83,0.67-1.5,1.5-1.5S33,26.17,33,27V30z M33,21c0,0.83-0.67,1.5-1.5,1.5 S30,21.83,30,21v-3c0-0.83,0.67-1.5,1.5-1.5S33,17.17,33,18V21z" />
</svg>